# xmcd
#
# Track frame offsets:
#	150
#	15146
#	30048
#	46165
#	63773
#	81249
#	97983
#	115903
#	136212
#	149341
#	160295
#	175046
#
# Disc length: 2586 seconds
#
# Revision: 1
# Processed by: cddbd v1.5.2PL0 Copyright (c) Steve Scherf et al.
# Submitted via: audiograbber 1.83.01
#
DISCID=830a180c
DTITLE=Elly Lockhorst - Zoveel Kleuren...
DYEAR=2007
DGENRE=Folk
TTITLE0=k Heb het te pakken van jou
TTITLE1=Hou me Vast
TTITLE2=Wat ik ook zeg, wat ik ook doe
TTITLE3=Dans met mij tot morgen vroeg
TTITLE4=Ik wil je niet verliezen
TTITLE5=Pak het geluk
TTITLE6=Ik ben niet verliefd
TTITLE7=Spijt
TTITLE8=Rudy
TTITLE9=Didi
TTITLE10=Als ik je zie
TTITLE11=Hoe moet ik nu verder met mijn leven
EXTD=
EXTT0=
EXTT1=
EXTT2=
EXTT3=
EXTT4=
EXTT5=
EXTT6=
EXTT7=
EXTT8=
EXTT9=
EXTT10=
EXTT11=
PLAYORDER=
